{
  "accessors": [
    {
      "bufferView": 2,
      "componentType": 5126,
      "count": 2629,
      "max": [
        51.021442413330078,
        -27.05628776550293,
        6.4987239837646484
      ],
      "min": [
        42.436389923095703,
        -32.199798583984375,
        3.5404858589172363
      ],
      "type": "VEC3"
    },
    {
      "bufferView": 2,
      "byteOffset": 31548,
      "componentType": 5126,
      "count": 2629,
      "max": [
        0.99953532218933105,
        0.99717503786087036,
        1
      ],
      "min": [
        -0.9995352029800415,
        -0.99981337785720825,
        -0.99979501962661743
      ],
      "type": "VEC3"
    },
    {
      "bufferView": 3,
      "componentType": 5126,
      "count": 2629,
      "max": [
        1,
        0.99999058246612549,
        0.9999498724937439,
        1
      ],
      "min": [
        -0.99999982118606567,
        -0.99985915422439575,
        -0.99993687868118286,
        -1
      ],
      "type": "VEC4"
    },
    {
      "bufferView": 1,
      "componentType": 5126,
      "count": 2629,
      "max": [
        0.99500000476837158,
        0.99500000476837158
      ],
      "min": [
        0.004999999888241291,
        0.11134200543165207
      ],
      "type": "VEC2"
    },
    {
      "bufferView": 1,
      "byteOffset": 21032,
      "componentType": 5126,
      "count": 2629,
      "max": [
        0.99500000476837158,
        0.99500000476837158
      ],
      "min": [
        0.004999999888241291,
        0.11134200543165207
      ],
      "type": "VEC2"
    },
    {
      "bufferView": 1,
      "byteOffset": 42064,
      "componentType": 5126,
      "count": 2629,
      "max": [
        0.99500000476837158,
        0.99500000476837158
      ],
      "min": [
        0.004999999888241291,
        0.11134200543165207
      ],
      "type": "VEC2"
    },
    {
      "bufferView": 1,
      "byteOffset": 63096,
      "componentType": 5126,
      "count": 2629,
      "max": [
        0.99500000476837158,
        0.99500000476837158
      ],
      "min": [
        0.004999999888241291,
        0.11134200543165207
      ],
      "type": "VEC2"
    },
    {
      "bufferView": 0,
      "componentType": 5125,
      "count": 9900,
      "max": [
        2628
      ],
      "min": [
        0
      ],
      "type": "SCALAR"
    }
  ],
  "asset": {
    "extras": {
      "author": "albertduranll (https://sketchfab.com/albertduranll)",
      "license": "CC-BY-4.0 (http://creativecommons.org/licenses/by/4.0/)",
      "source": "https://sketchfab.com/3d-models/ps4-controller-c10e207b60ec451fabde91c17d4cb2ac",
      "title": "PS4 Controller"
    },
    "generator": "Sketchfab-7.13.0",
    "version": "2.0"
  },
  "bufferViews": [
    {
      "buffer": 0,
      "byteLength": 39600,
      "byteOffset": 0,
      "name": "floatBufferViews",
      "target": 34963
    },
    {
      "buffer": 0,
      "byteLength": 84128,
      "byteOffset": 39600,
      "byteStride": 8,
      "name": "floatBufferViews",
      "target": 34962
    },
    {
      "buffer": 0,
      "byteLength": 63096,
      "byteOffset": 123728,
      "byteStride": 12,
      "name": "floatBufferViews",
      "target": 34962
    },
    {
      "buffer": 0,
      "byteLength": 42064,
      "byteOffset": 186824,
      "byteStride": 16,
      "name": "floatBufferViews",
      "target": 34962
    }
  ],
  "buffers": [
    {
      "byteLength": 228888,
      "uri": "scene.bin"
    }
  ],
  "images": [
    {
      "uri": "textures/Default_baseColor.png"
    },
    {
      "uri": "textures/Default_metallicRoughness.png"
    },
    {
      "uri": "textures/Default_normal.png"
    }
  ],
  "materials": [
    {
      "doubleSided": true,
      "name": "Default",
      "normalTexture": {
        "index": 2,
        "scale": 1,
        "texCoord": 0
      },
      "occlusionTexture": {
        "index": 1,
        "strength": 1,
        "texCoord": 0
      },
      "pbrMetallicRoughness": {
        "baseColorFactor": [
          1,
          1,
          1,
          1
        ],
        "baseColorTexture": {
          "index": 0,
          "texCoord": 0
        },
        "metallicFactor": 1,
        "metallicRoughnessTexture": {
          "index": 1,
          "texCoord": 0
        },
        "roughnessFactor": 1
      }
    }
  ],
  "meshes": [
    {
      "name": "cylinder_Default_0",
      "primitives": [
        {
          "attributes": {
            "NORMAL": 1,
            "POSITION": 0,
            "TANGENT": 2,
            "TEXCOORD_0": 3,
            "TEXCOORD_1": 4,
            "TEXCOORD_2": 5,
            "TEXCOORD_3": 6
          },
          "indices": 7,
          "material": 0,
          "mode": 4
        }
      ]
    }
  ],
  "nodes": [
    {
      "children": [
        1
      ],
      "name": "RootNode (gltf orientation matrix)",
      "rotation": [
        -0.70710678118654746,
        -0,
        -0,
        0.70710678118654757
      ]
    },
    {
      "children": [
        2
      ],
      "name": "RootNode (model correction matrix)"
    },
    {
      "children": [
        3
      ],
      "matrix": [
        1,
        0,
        0,
        0,
        0,
        0,
        1,
        0,
        0,
        -1,
        0,
        0,
        0,
        0,
        0,
        1
      ],
      "name": "81378838702745eaba60361f4fd18c21.fbx"
    },
    {
      "children": [
        4
      ],
      "name": "RootNode"
    },
    {
      "children": [
        5
      ],
      "name": "cylinder"
    },
    {
      "mesh": 0,
      "name": "cylinder_Default_0"
    }
  ],
  "samplers": [
    {
      "magFilter": 9729,
      "minFilter": 9987,
      "wrapS": 10497,
      "wrapT": 10497
    }
  ],
  "scene": 0,
  "scenes": [
    {
      "name": "OSG_Scene",
      "nodes": [
        0
      ]
    }
  ],
  "textures": [
    {
      "sampler": 0,
      "source": 0
    },
    {
      "sampler": 0,
      "source": 1
    },
    {
      "sampler": 0,
      "source": 2
    }
  ]
}

